<?xml version="1.0" encoding="UTF-8" standalone="no"?>
<svg
   xmlns:dc="http://purl.org/dc/elements/1.1/"
   xmlns:cc="http://creativecommons.org/ns#"
   xmlns:rdf="http://www.w3.org/1999/02/22-rdf-syntax-ns#"
   xmlns:svg="http://www.w3.org/2000/svg"
   xmlns="http://www.w3.org/2000/svg"
   xmlns:sodipodi="http://sodipodi.sourceforge.net/DTD/sodipodi-0.dtd"
   xmlns:inkscape="http://www.inkscape.org/namespaces/inkscape"
   version="1.1"
   id="svg10"
   xml:space="preserve"
   width="8000"
   height="5333.3335"
   viewBox="0 0 8000 5333.3335"
   sodipodi:docname="logo.svg"
   inkscape:version="1.0.2 (e86c870879, 2021-01-15)"><metadata
     id="metadata16"><rdf:RDF><cc:Work
         rdf:about=""><dc:format>image/svg+xml</dc:format><dc:type
           rdf:resource="http://purl.org/dc/dcmitype/StillImage" /><dc:title></dc:title></cc:Work></rdf:RDF></metadata><defs
     id="defs14" /><sodipodi:namedview
     pagecolor="#ffffff"
     bordercolor="#666666"
     borderopacity="1"
     objecttolerance="10"
     gridtolerance="10"
     guidetolerance="10"
     inkscape:pageopacity="0"
     inkscape:pageshadow="2"
     inkscape:window-width="1366"
     inkscape:window-height="704"
     id="namedview12"
     showgrid="false"
     inkscape:zoom="0.090374997"
     inkscape:cx="4557.5279"
     inkscape:cy="2759.8299"
     inkscape:window-x="0"
     inkscape:window-y="0"
     inkscape:window-maximized="1"
     inkscape:current-layer="g18" /><g
     id="g18"
     inkscape:groupmode="layer"
     inkscape:label="ink_ext_XXXXXX"
     transform="matrix(1.3333333,0,0,-1.3333333,0,5333.3333)"><circle
       id="path202"
       style="fill:#000000;stroke:#000000;stroke-width:0.75"
       cx="-1208.4091"
       cy="-1306.6001"
       r="4.1452284"
       transform="scale(1,-1)" /><g
       id="g299"
       transform="translate(1519.8717,-321.86853)"><path
         id="path242"
         style="fill:#552200;stroke-width:0.75"
         d="m 506.03694,1721.0459 -31.41795,-24.7104 -7.40918,-2.9414 c -2.7786,-0.9465 -5.58645,-1.831 -8.38477,-2.7319 -0.89708,-0.7382 -1.80645,-1.4608 -2.7012,-2.2017 -4.938,-4.0887 -9.83993,-8.2226 -14.688,-12.4161 -4.84808,-4.1934 -9.6423,-8.4471 -14.36715,-12.7792 -4.72493,-4.3322 -9.37988,-8.7418 -13.94828,-13.2466 -4.99012,-5.955 -9.84757,-12.0006 -14.4624,-18.1904 -2.30737,-3.095 -4.55332,-6.2252 -6.72652,-9.3999 -2.17328,-3.1748 -4.2735,-6.3936 -6.28568,-9.6622 -2.01217,-3.2685 -3.93697,-6.5874 -5.7612,-9.9638 -1.8243,-3.3765 -3.54832,-6.8097 -5.15775,-10.3082 -1.60942,-3.4983 -3.1044,-7.0619 -4.47217,-10.6962 -1.3677,-3.6344 -2.60835,-7.3397 -3.70748,-11.124 -0.9093,-3.5499 -1.7424,-7.0851 -2.48002,-10.607 -0.73763,-3.5219 -1.37955,-7.031 -1.90718,-10.5292 -0.5277,-3.4983 -0.94087,-6.9861 -1.22025,-10.4649 -0.27937,-3.4789 -0.42472,-6.9483 -0.41745,-10.4121 0.007,-3.4638 0.16725,-6.9225 0.4995,-10.3755 0.33218,-3.4531 0.8367,-6.901 1.53218,-10.3476 0.69547,-3.4467 1.58212,-6.8915 2.67922,-10.336 1.0971,-3.4445 2.40488,-6.8893 3.94193,-10.3359 2.03932,-4.0724 4.15987,-7.9449 6.36765,-11.6456 2.20777,-3.7006 4.50277,-7.2293 6.89212,-10.6113 2.38928,-3.382 4.872,-6.6174 7.45605,-9.7338 2.58398,-3.1165 5.26905,-6.1137 8.061,-9.0177 2.79195,-2.904 5.69108,-5.7147 8.70413,-8.4594 3.01297,-2.7447 6.13942,-5.4227 9.3867,-8.061 3.24727,-2.6384 6.61567,-5.2371 10.11037,-7.8223 3.4947,-2.5852 7.11675,-5.1581 10.87208,-7.7432 11.98987,-7.6185 24.27675,-14.7624 36.22702,-22.4428 6.86933,-4.415 13.59263,-9.0489 20.25443,-13.774 6.66172,-4.7251 13.26255,-9.5416 19.8852,-14.3261 6.62272,-4.7846 13.26788,-9.5368 20.02005,-14.1299 3.37605,-2.2966 6.77873,-4.5528 10.21875,-6.7545 3.44003,-2.2016 6.91635,-4.3478 10.44143,-6.4233 12.15367,-7.7465 24.39412,-15.3382 36.73972,-22.7388 12.3456,-7.4004 24.79763,-14.6107 37.374,-21.5932 6.28823,-3.4913 12.6063,-6.9261 18.95948,-10.2993 6.35317,-3.3732 12.7401,-6.684 19.1631,-9.9302 6.423,-3.2462 12.88215,-6.4274 19.37985,-9.5376 6.49777,-3.1101 13.0341,-6.1506 19.61137,-9.1157 8.69258,-3.865 17.60026,-7.9136 26.57078,-11.8125 4.4853,-1.9495 8.9862,-3.8608 13.48388,-5.6938 4.49775,-1.833 8.99272,-3.5875 13.4649,-5.2208 4.95142,-1.8083 9.93615,-3.5059 14.9472,-5.1152 5.01112,-1.6094 10.04827,-3.1297 15.10552,-4.585 10.11443,-2.9104 20.30783,-5.5588 30.52583,-8.1225 10.218,-2.5637 20.46037,-5.0425 30.67387,-7.6186 10.2135,-2.5763 20.39858,-5.2492 30.4995,-8.1973 21.77198,-4.0318 43.49626,-8.3162 65.20756,-12.6739 21.71122,-4.3577 43.40857,-8.7885 65.12542,-13.1147 21.7169,-4.3263 43.4539,-8.5473 65.2427,-12.4849 10.8944,-1.9688 21.8013,-3.8672 32.7261,-5.6719 10.9248,-1.8046 21.868,-3.515 32.8315,-5.1108 20.375,-2.2546 40.7819,-4.5839 61.2158,-6.7676 10.217,-1.0919 20.4403,-2.147 30.6695,-3.1391 10.2292,-0.9922 20.4649,-1.9206 30.7046,-2.7583 10.2397,-0.8378 20.4838,-1.5847 30.7324,-2.2134 10.2486,-0.6287 20.5015,-1.1394 30.7573,-1.5044 10.2558,-0.3651 20.5137,-0.5847 30.7749,-0.6314 10.2613,-0.047 20.526,0.079 30.7911,0.4058 9.5403,0.755 19.0658,1.6176 28.5747,2.5986 9.5088,0.9811 19.0001,2.0808 28.4692,3.3105 9.4691,1.2299 18.9163,2.5901 28.3374,4.0914 9.4211,1.5012 18.8172,3.144 28.1821,4.9395 9.3649,1.7954 18.7,3.7426 28.0005,5.8549 9.3005,2.1123 18.5662,4.389 27.7939,6.8408 9.2279,2.4519 18.4171,5.08 27.564,7.8941 9.147,2.8141 18.2513,5.8141 27.3091,9.0132 13.2333,4.7481 28.4,10.0793 43.4956,15.6065 7.5478,2.7635 15.079,5.5755 22.3403,8.3891 7.2614,2.8137 14.254,5.6276 20.7275,8.395 3.325,1.4214 8.154,3.8419 13.3492,6.5332 5.1952,2.6913 10.7556,5.654 15.5464,8.1592 4.131,2.1602 7.1635,3.6577 9.4189,4.6714 15.9042,10.5633 23.0682,15.2453 29.751,19.7637 6.8253,4.6147 13.5618,9.3324 29.8535,20.8008 7.076,4.9811 17.9388,12.8331 28.9043,20.5605 5.4828,3.8637 10.9912,7.6952 16.065,11.1225 5.0737,3.4274 9.7123,6.45 13.456,8.6924 21.6608,12.9744 43.4189,25.7878 65.2427,38.4874 21.8238,12.6996 43.7141,25.2859 65.6397,37.8075 4.7732,2.726 9.6533,5.2546 14.5605,7.7344 4.9072,2.4799 9.8413,4.9109 14.7217,7.4399 12.922,5.2579 20.8695,8.7649 28.9365,11.795 4.0335,1.5151 8.0967,2.911 12.8262,4.3462 4.7295,1.4352 10.1266,2.91 16.8252,4.5834 4.8058,1.2006 9.6324,2.2604 14.477,3.1978 4.8447,0.9375 9.7061,1.7521 14.5825,2.4653 4.8765,0.7133 9.7676,1.3252 14.669,1.8531 4.9014,0.5279 9.8142,0.972 14.7334,1.3535 9.8385,0.7629 19.7057,1.2713 29.5737,1.6816 9.8681,0.4104 19.7364,0.7224 29.5781,1.0914 6.5259,-0.028 13.0486,-0.032 19.5645,0.017 6.5159,0.05 13.0254,0.1536 19.5234,0.3398 6.498,0.1863 12.9852,0.4557 19.4576,0.8365 6.4723,0.3807 12.9294,0.8725 19.3681,1.5059 6.4388,0.6333 12.8595,1.4083 19.2569,2.3525 6.3973,0.9442 12.7711,2.0589 19.1191,3.3721 6.348,1.3131 12.67,2.8242 18.9609,4.5644 6.291,1.7403 12.5519,3.7085 18.7779,5.9341 12.4817,4.2493 24.9567,8.5737 37.3755,13.0635 12.4187,4.4897 24.7802,9.1458 37.0341,14.0566 6.127,2.4554 12.2278,4.9742 18.2945,7.5689 6.0667,2.5946 12.1001,5.265 18.0937,8.0214 5.9937,2.7564 11.9472,5.5993 17.855,8.5401 5.9079,2.9408 11.7703,5.9797 17.5796,9.1275 11.094,5.8724 28.9949,15.4157 46.6348,24.7543 1.8369,0.9725 2.8701,1.4856 4.6933,2.4492 1.0912,1.2039 2.1831,2.4069 3.1714,3.69 1.3342,1.732 2.5802,3.5309 3.7544,5.3818 1.1742,1.851 2.2767,3.7545 3.3222,5.6953 1.0456,1.9409 2.0342,3.9193 2.9825,5.9209 1.8967,4.0032 3.6298,8.0984 5.3262,12.17 1.6963,4.0716 3.3559,8.1193 5.1034,12.0263 1.2309,4.0452 2.28,7.9693 3.1597,11.8023 0.8797,3.833 1.5896,7.5751 2.1402,11.2588 0.5506,3.6837 0.9428,7.3086 1.1865,10.9057 0.2438,3.5972 0.3398,7.1669 0.2988,10.7402 -0.041,3.5734 -0.2194,7.1498 -0.5229,10.7622 -0.3036,3.6125 -0.732,7.2603 -1.2759,10.9746 -0.544,3.7144 -1.2036,7.4956 -1.9658,11.3746 -0.7622,3.879 -1.6272,7.8554 -2.5855,11.9619 -1.3015,4.7779 -2.7133,9.5117 -4.226,14.2046 -1.5128,4.6929 -3.1266,9.3459 -4.8326,13.9599 -1.7059,4.6141 -3.5034,9.1901 -5.3847,13.7315 -1.8814,4.5414 -3.8468,9.0484 -5.8857,13.5235 -2.0391,4.4749 -4.1523,8.9182 -6.3311,13.3329 -2.1788,4.4148 -4.423,8.7996 -6.7237,13.1602 -4.6014,8.7212 -9.429,17.3417 -14.4111,25.8838 -5.9541,11.2939 -12.0519,22.4956 -18.2607,33.6298 -6.2088,11.1344 -12.5274,22.2017 -18.9243,33.2242 -12.7938,22.045 -25.8985,43.9136 -39.0455,65.7978 -5.8303,9.2486 -11.7114,18.4547 -17.8007,27.4878 -3.0447,4.5166 -6.1411,8.9897 -9.3091,13.4033 -3.1681,4.4138 -6.4079,8.7678 -9.7383,13.0459 -3.3304,4.2782 -6.7513,8.4805 -10.2832,12.5904 -3.5319,4.1099 -7.1745,8.1277 -10.9468,12.0366 -3.7724,3.9089 -7.6742,7.7095 -11.726,11.3848 -4.052,3.6752 -8.2536,7.2258 -12.6241,10.6348 -5.9164,4.7968 -11.903,9.4805 -17.9561,14.0565 -6.0529,4.5762 -12.1726,9.0447 -18.3573,13.4093 -6.1848,4.3645 -12.4339,8.6242 -18.7457,12.7866 -6.3117,4.1623 -12.6867,8.2269 -19.1206,12.1963 -6.4339,3.9693 -12.9267,7.8435 -19.478,11.6294 -6.5512,3.7858 -13.1599,7.4832 -19.8238,11.0947 -6.6637,3.6114 -13.3832,7.137 -20.1547,10.5835 -6.7715,3.4464 -13.5953,6.8138 -20.4698,10.1045 -9.3717,4.506 -20.6424,10.0255 -31.9907,15.3823 -5.6741,2.6784 -11.3678,5.3152 -16.853,7.7652 -5.4851,2.4499 -10.7627,4.7127 -15.6035,6.6401 -6.084,2.4224 -12.2107,4.7095 -18.375,6.8803 -6.1643,2.1709 -12.3665,4.2246 -18.5976,6.1832 -6.2312,1.9585 -12.4919,3.8219 -18.7764,5.6074 -6.2846,1.7854 -12.5925,3.4929 -18.917,5.1445 -12.649,3.3033 -25.3639,6.3786 -38.0918,9.3824 -12.728,3.0036 -25.4688,5.9364 -38.168,8.9545 -8.814,1.824 -17.6038,3.4982 -26.3789,5.0333 -8.7751,1.5349 -17.536,2.9301 -26.2895,4.1982 -8.7536,1.2681 -17.4993,2.4089 -26.2486,3.4321 -8.7493,1.0232 -17.5009,1.9301 -26.2632,2.7305 -8.7622,0.8004 -17.5365,1.4951 -26.329,2.0947 -8.7927,0.5996 -17.6047,1.104 -26.4449,1.5249 -8.8402,0.4209 -17.7083,0.7583 -26.6133,1.0225 -8.9051,0.2641 -17.8458,0.4549 -26.833,0.5845 -13.2298,0.3262 -26.4627,0.5323 -39.6958,0.6459 -13.2331,0.1137 -26.4672,0.135 -39.7017,0.092 -26.4688,-0.086 -52.9391,-0.4269 -79.4018,-0.7999 -17.3675,-0.3631 -34.7364,-0.8126 -52.1001,-1.4048 -17.3638,-0.5922 -34.7213,-1.3265 -52.0679,-2.2602 -17.3465,-0.9338 -34.6816,-2.0677 -51.9975,-3.4556 -8.658,-0.6939 -17.3107,-1.4507 -25.9586,-2.2793 -8.6478,-0.8285 -17.2902,-1.7283 -25.9262,-2.7056 -13.7951,-1.5922 -27.6098,-3.13 -41.4199,-4.7256 -13.8102,-1.5955 -27.6162,-3.2487 -41.3965,-5.0727 -13.7803,-1.824 -27.5341,-3.8192 -41.2397,-6.0966 -6.8529,-1.1388 -13.6938,-2.3473 -20.5196,-3.6417 -6.8258,-1.2943 -13.637,-2.6733 -20.4301,-4.1514 -9.5441,-2.9908 -14.8029,-4.4469 -19.9293,-6.2445 -2.5632,-0.8989 -5.0935,-1.8827 -8.1093,-3.1875 -1.3968,-0.6044 -3.4483,-1.6022 -5.1051,-2.3673 -7.3094,-4.9707 -14.6147,-9.9467 -21.9945,-14.8198 -10.1284,-6.688 -20.3229,-13.2827 -30.5802,-19.7813 -10.2572,-6.4985 -20.5775,-12.9014 -30.9594,-19.204 -10.3819,-6.3027 -20.8249,-12.5062 -31.3272,-18.6065 -10.5022,-6.1003 -21.0633,-12.0969 -31.6816,-17.9883 -10.6183,-5.8914 -21.2943,-11.6779 -32.0244,-17.354 -10.7301,-5.6761 -21.515,-11.2419 -32.3525,-16.6963 -10.83762,-5.4544 -21.72672,-10.7962 -32.66757,-16.0225 -12.33255,-4.7535 -20.27168,-8.0245 -28.3227,-10.9233 -4.02555,-1.4493 -8.0787,-2.8057 -12.72368,-4.2084 -4.6449,-1.4028 -9.882,-2.8512 -16.2729,-4.4854 -4.7289,-1.2092 -9.47977,-2.3258 -14.24707,-3.3662 -4.76738,-1.0404 -9.55118,-2.0053 -14.34818,-2.9136 -9.594,-1.8165 -19.23855,-3.405 -28.8984,-4.9131 -9.65993,-1.5081 -19.33523,-2.9352 -28.99073,-4.4282 -9.6555,-1.4931 -19.29127,-3.0523 -28.87207,-4.8238 -12.2889,-2.059 -24.81608,-3.9378 -37.25243,-6.2519 -6.21825,-1.1571 -12.4134,-2.423 -18.54495,-3.8745 -3.03097,-0.7175 -6.04627,-1.4823 -9.04102,-2.2998 -1.2663,-1.1203 -2.59418,-2.1817 -3.84525,-3.3164 -4.8513,-4.4006 -9.59093,-8.9079 -14.23823,-13.5029 -4.6473,-4.5951 -9.2031,-9.2782 -13.6875,-14.0289 -4.48448,-4.7506 -8.89703,-9.5687 -13.25978,-14.436 -8.72557,-9.7346 -17.24992,-19.6631 -25.73587,-29.6309 -8.48595,-9.9677 -16.93448,-19.9742 -25.5102,-29.8637 -3.43328,-4.4978 -9.81878,-12.7419 -16.11915,-21.1084 -3.15023,-4.1833 -6.2802,-8.3968 -9.00735,-12.189 -2.72715,-3.7922 -5.05193,-7.162 -6.59618,-9.6577 -3.16897,-5.1217 -6.16155,-10.3581 -9.04687,-15.6606 -2.88533,-5.3026 -5.66393,-10.6716 -8.40525,-16.062 -2.74133,-5.3906 -5.44575,-10.8025 -8.18265,-16.188 -2.7369,-5.3856 -5.5068,-10.7451 -8.37893,-16.0328 z" /><g
         id="g232"
         transform="translate(-597.38075,254.50599)"><path
           d="m 2247.1459,2471.8187 c -31.03,-31.46 -139.38,-193.02 -153.1,-237.81 -6.86,-22.32 -12.05,-754.13 -12.05,-754.13 h -29.12 c 0,0 -5.18,720.8 -11.2,742.4 -6.1,21.53 -44.44,101.66 -56.96,120.04 -25.6,36.2 -73.06,74.18 -111.97,95.51 -539.56,295.76 -445.49,488.49 -618.4,673.95 85.1,-5.41 219.72,-8.31 298.61,-40.54 637.61,-260.49 513.75,-736.03 513.75,-736.03 34.27,436.12 187.47,557.96 710.91,874.33 -45.91,-350.41 -468.22,-674.93 -530.47,-737.72"
           style="fill:#79af2b;fill-opacity:1;fill-rule:nonzero;stroke:none;stroke-width:0.1"
           id="path24" /><path
           d="m 2777.6359,3209.5087 c -45.95,-350.39 -468.24,-674.88 -530.5,-737.67 -31,-31.48 -139.38,-193.01 -153.06,-237.81 -6.9,-22.37 -12.06,-754.15 -12.06,-754.15 h -29.16 c 0,0 -5.16,720.78 -11.21,742.42 -6.05,21.52 -44.42,101.63 -56.95,120 -25.58,36.22 -73.06,74.22 -111.95,95.54 -539.56,295.75 -445.5,488.5 -618.41,673.93 85.11,-5.42 219.75,-8.32 298.6,-40.53 464.29,-189.69 524.82,-493.4 523.4,-644.51 49.21,363.6 216.43,489.77 701.3,782.78"
           style="fill:#79af2b;fill-opacity:1;fill-rule:nonzero;stroke:none;stroke-width:0.1"
           id="path26" /><path
           d="m 1957.1159,2374.3487 c -672.05,382.53 -529.38,530.94 -702.68,737.32 103.45,-111.01 111.29,-224.65 216.72,-361.45 69.7,-90.44 182.11,-191.03 392.99,-307.66 1.25,-0.95 2.53,-1.91 3.79,-2.86 3.93,-6.66 7.89,-13.41 11.88,-20.25 l 25.63,-7.71 c 16.6,-12.21 33.81,-24.67 51.67,-37.39 -0.01,0.01 0,0 0,0 m -702.77,737.42 v 0 c 0,0.01 0,0.01 0,0.01 v 0 c 0.01,-0.02 -0.01,0 0,-0.01"
           style="fill:#fcd7c8;fill-opacity:1;fill-rule:nonzero;stroke:none;stroke-width:0.1"
           id="path32" /><path
           d="m 1864.1459,2442.5587 c -210.88,116.63 -323.29,217.22 -392.99,307.66 69.7,-90.44 182.07,-191 392.95,-307.63 l 0.04,-0.03 m -609.79,669.21 h -0.01 c -0.01,0.01 0.01,-0.01 0,0.01 v 0 c 0.01,-0.01 -0.01,0 0.01,-0.01"
           style="fill:#bfd715;fill-opacity:1;fill-rule:nonzero;stroke:none;stroke-width:0.1"
           id="path34" /><path
           d="m 1957.1159,2374.3487 c -0.04,0.03 0.04,-0.02 0,0 l -0.01,0.01 c 0.01,-0.01 0.01,-0.01 0.01,-0.01 m -93.01,68.24 c -210.88,116.63 -323.25,217.19 -392.95,307.63 -105.43,136.8 -113.27,250.44 -216.72,361.45 -0.03,0.03 -0.06,0.07 -0.09,0.11 0,-0.01 0,-0.01 0,-0.01 h 0.01 c 224.63,-155.15 99.5,-282.64 609.75,-669.18"
           style="fill:#bfd715;fill-opacity:1;fill-rule:nonzero;stroke:none;stroke-width:0.1"
           id="path36" /><path
           d="m 2053.1259,2591.9487 c -41.49,140.8 -150.81,312.81 -420.57,443.82 263.92,-95.76 380.41,-262.71 420.57,-443.82"
           style="fill:#ca7060;fill-opacity:1;fill-rule:nonzero;stroke:none;stroke-width:0.1"
           id="path38" /><path
           d="m 2053.2359,2591.4487 c -41.39,140.91 -150.64,313.19 -420.77,444.35 0.03,-0.01 0.06,-0.02 0.09,-0.03 269.76,-131.01 379.08,-303.02 420.57,-443.82 0.04,-0.16 0.07,-0.34 0.11,-0.5 m -798.63,520.3 c -0.07,0.01 -0.15,0.01 -0.22,0.02 -0.01,0 -0.03,0 -0.04,0.01 v 0 c 0.09,-0.01 0.17,-0.02 0.26,-0.03"
           style="fill:#679731;fill-opacity:1;fill-rule:nonzero;stroke:none;stroke-width:0.1"
           id="path40" /><path
           d="m 2066.7059,2335.2087 c -83.09,525.23 -544.43,729.95 -812.32,776.56 0.07,-0.01 0.15,-0.01 0.22,-0.02 150.89,-12.38 275.48,-38.81 377.86,-75.95 270.13,-131.16 379.38,-303.44 420.77,-444.35 18.62,-84.28 20.72,-171.6 13.47,-256.24"
           style="fill:#679731;fill-opacity:1;fill-rule:nonzero;stroke:none;stroke-width:0.1"
           id="path42" /><path
           d="m 2052.8759,1479.8787 v 0 0 0 m -0.04,2.87 -11.16,739.44 c 5.82,-22.93 10.8,-690.2 11.16,-739.44 m -11.2,739.58 c -26.87,37.41 -51.14,87.78 -79.64,147.07 8.61,-8.96 16.33,-18.08 22.7,-27.1 6.78,-9.94 21.12,-37.95 33.82,-64.99 5.53,-11.77 10.74,-23.34 14.89,-33.17 3.92,-9.29 6.88,-17 8.23,-21.81"
           style="fill:#fcd7c8;fill-opacity:1;fill-rule:nonzero;stroke:none;stroke-width:0.1"
           id="path44" /><path
           d="m 2064.2459,1479.8787 h -11.37 v 0 0 h 11.37 v 0 m -30.84,764.26 c -4.15,9.83 -9.36,21.4 -14.89,33.17 5.53,-11.76 10.75,-23.35 14.89,-33.17"
           style="fill:#bfd715;fill-opacity:1;fill-rule:nonzero;stroke:none;stroke-width:0.1"
           id="path46" /><path
           d="m 2064.2459,1479.8787 h -11.37 v 0 l -0.04,2.87 c -0.36,49.24 -5.34,716.51 -11.16,739.44 v 0.09 c -0.02,0.01 -0.02,0.03 -0.04,0.05 -1.35,4.81 -4.31,12.52 -8.23,21.81 -4.14,9.82 -9.36,21.41 -14.89,33.17 -12.7,27.04 -27.04,55.05 -33.82,64.99 -6.37,9.02 -14.09,18.14 -22.7,27.1 -71.51,148.72 -169.68,353.55 -402.54,550.67 -44.98,41.22 -91.51,76.15 -142.67,107.49 v 0 c 142.17,-67.64 432.78,-254.44 587.83,-629.38 36.99,-86.92 59.63,-153.2 59.63,-264.74 v -653.56"
           style="fill:#bfd715;fill-opacity:1;fill-rule:nonzero;stroke:none;stroke-width:0.1"
           id="path48" /><path
           d="m 2240.1759,2818.9487 c 58.04,74.22 126.11,126.97 200.03,174.48 -82.79,-59.39 -148.37,-115.29 -200.03,-174.48"
           style="fill:#fcd7c8;fill-opacity:1;fill-rule:nonzero;stroke:none;stroke-width:0.1"
           id="path50" /><path
           d="m 2240.1659,2818.9387 0.01,0.01 c 51.66,59.19 117.24,115.09 200.03,174.48 0.07,0.04 0.12,0.07 0.19,0.11 -82.91,-59.45 -148.52,-115.36 -200.23,-174.6 m 537.27,390.45 c 0.06,0.05 0.13,0.1 0.18,0.15 v 0 c -0.01,-0.02 -0.04,-0.05 -0.05,-0.07 -0.03,-0.02 -0.1,-0.06 -0.13,-0.08"
           style="fill:#bfd715;fill-opacity:1;fill-rule:nonzero;stroke:none;stroke-width:0.1"
           id="path52" /><path
           d="m 2066.7059,2335.2087 c 30.36,233.25 92.04,379.6 173.46,483.73 51.71,59.24 117.32,115.15 200.23,174.6 104.6,67.19 220.9,123.87 337.04,215.85 0.03,0.02 0.1,0.06 0.13,0.08 -0.06,-0.08 -0.09,-0.12 -0.15,-0.19 -11.08,-11.74 -26.02,-28.56 -43.84,-49.13 -206.04,-205.52 -543.32,-245.93 -666.87,-824.94"
           style="fill:#bfd715;fill-opacity:1;fill-rule:nonzero;stroke:none;stroke-width:0.1"
           id="path54" /><path
           d="m 1918.4659,2407.8187 -13.02,3.92 c -12.88,9.47 -25.36,18.78 -37.51,27.96 -0.23,0.39 -0.45,0.75 -0.68,1.14 1.83,-1 3.65,-2 5.49,-3.01 14.57,-7.99 30.34,-18.31 45.72,-30.01"
           style="fill:#ca7060;fill-opacity:1;fill-rule:nonzero;stroke:none;stroke-width:0.1"
           id="path56" /><path
           d="m 1918.4659,2407.8187 v 0 c -15.38,11.7 -31.15,22.02 -45.72,30.01 -1.84,1.01 -3.66,2.01 -5.49,3.01 l -0.01,0.02 c 1.83,-1.01 3.65,-2.01 5.5,-3.02 14.57,-7.99 30.35,-18.32 45.72,-30.02"
           style="fill:#679731;fill-opacity:1;fill-rule:nonzero;stroke:none;stroke-width:0.1"
           id="path58" /><path
           d="m 1947.7059,2399.0287 -29.24,8.79 c -15.37,11.7 -31.15,22.03 -45.72,30.02 -1.85,1.01 -3.67,2.01 -5.5,3.02 -177.59,300.54 -300.17,418.62 -450.46,586.7 v 0 c 52.54,-35.3 99.89,-71.27 142.67,-107.49 121.14,-111 230.85,-267.44 388.25,-521.04"
           style="fill:#679731;fill-opacity:1;fill-rule:nonzero;stroke:none;stroke-width:0.1"
           id="path60" /><path
           d="m 1905.4459,2411.7387 -25.63,7.71 c -3.99,6.84 -7.95,13.59 -11.88,20.25 12.15,-9.18 24.63,-18.49 37.51,-27.96"
           style="fill:#cbafa3;fill-opacity:1;fill-rule:nonzero;stroke:none;stroke-width:0.1"
           id="path62" /><path
           d="m 1559.4559,2920.0687 c -42.78,36.22 -90.13,72.19 -142.67,107.49 51.16,-31.34 97.69,-66.27 142.67,-107.49"
           style="fill:#9cb422;fill-opacity:1;fill-rule:nonzero;stroke:none;stroke-width:0.1"
           id="path64" /><path
           d="m 2082.0159,1479.8787 h -8.37 c 0,0 0,534.61 0,702.62 0,167.96 162.59,413.24 291.65,551.09 107.94,115.34 276.35,320.51 368.28,426.56 15.38,15.35 30.06,31.64 43.84,49.13 0.07,0.07 0.15,0.15 0.22,0.23 -45.95,-350.39 -468.24,-674.88 -530.5,-737.67 -31,-31.48 -139.38,-193.01 -153.06,-237.81 -6.9,-22.37 -12.06,-754.15 -12.06,-754.15"
           style="fill:#679731;fill-opacity:1;fill-rule:nonzero;stroke:none;stroke-width:0.1"
           id="path66" /><path
           d="m 2733.5759,3160.1487 c 17.82,20.57 32.76,37.39 43.84,49.13 -13.78,-17.49 -28.46,-33.78 -43.84,-49.13"
           style="fill:#9cb422;fill-opacity:1;fill-rule:nonzero;stroke:none;stroke-width:0.1"
           id="path68" /><path
           d="m 2813.1059,3293.7687 c 1.26,-3.74 3.71,-7.21 6.6,-9.17 2.89,-2.03 5.59,-2.34 6.58,-2.65 0.53,-0.15 0.73,-0.34 0.71,-0.66 -0.02,-0.06 0.01,-0.06 -0.04,-0.17 l -0.33,-0.6 -0.65,-1.21 -1.32,-2.41 -5.26,-9.65 -5.3,-9.64 c -1.89,-3.12 -4.04,-6.05 -6.06,-9.09 -4.2,-5.91 -7.97,-12.24 -12.57,-17.79 l -13.73,-16.73 c -4.7,-5.44 -9.81,-10.4 -14.71,-15.62 -2.5,-2.54 -4.9,-5.22 -7.48,-7.65 l -7.84,-7.16 c -5.28,-4.68 -10.33,-9.74 -15.82,-14.09 -21.49,-18.21 -44.12,-34.35 -66.95,-49.87 -22.96,-15.18 -46.16,-29.81 -69.46,-43.8 -46.55,-28.17 -93.15,-55.18 -138.01,-84.28 -44.88,-29.03 -88.18,-59.99 -128.08,-94.61 -39.98,-34.49 -76.07,-73.07 -107.01,-115.38 l -11.28,-16.08 -5.62,-8.06 c -1.86,-2.69 -3.44,-5.57 -5.17,-8.34 l -10.11,-16.84 -5.03,-8.42 c -1.65,-2.82 -3.02,-5.8 -4.54,-8.7 l -8.88,-17.51 c -2.96,-5.82 -6.04,-11.59 -8.45,-17.69 -5.07,-12.07 -10.68,-23.88 -15.52,-36.03 -4.51,-12.29 -9.42,-24.44 -14.17,-36.66 -4.1,-12.46 -8.42,-24.87 -12.77,-37.31 -7.72,-25 -15.64,-49.83 -20.69,-76.2 -11.5,-52.94 -23.79,-105.7 -37.44,-158.49 l -0.03,-0.13 c -0.1,-0.37 -0.47,-0.58 -0.83,-0.49 -0.31,0.08 -0.51,0.36 -0.51,0.66 v 0.01 c -2.53,14.06 -4.44,28.15 -6.2,42.24 -1.78,14.09 -3.33,28.19 -4.68,42.29 -2.79,28.21 -5.05,56.42 -6.8,84.63 -1.7,28.96 -3.58,54.64 -8.95,80.82 -5.55,26 -13.8,51.31 -23.27,76.27 -5.41,12.24 -10.17,24.76 -16.46,36.68 -3.09,5.98 -5.66,12.21 -9.17,18 l -10.01,17.61 c -14.13,23.07 -29.64,45.5 -47.47,66.18 -17.29,21.1 -36.66,40.51 -56.38,59.5 -20.3,18.42 -41.07,36.41 -63.21,52.74 -87.93,66.17 -188.66,115.48 -294.27,147.97 -105.66,32.6 -216.43,48.59 -327.09,48 l 7.26,40.77 0.03,-0.02 c 21.63,-8.55 42.45,-20.22 60.62,-35.3 17.77,-15.46 32.45,-33.28 45.31,-51.62 24.73,-37.09 43.35,-75.45 62.61,-112.88 19.05,-37.52 38.4,-74.43 59.26,-110.48 10.2,-18.14 21.27,-35.8 32.09,-53.5 11.57,-16.72 22.34,-34 35.47,-49.63 12.13,-16.37 26.33,-31.12 39.91,-46.34 l 21.82,-21.59 5.46,-5.4 5.74,-5.12 11.51,-10.22 c 30.84,-27.09 63.6,-52.25 98.1,-75.3 34.4,-23.21 70.03,-44.9 106.18,-66.42 36.1,-21.68 72.89,-42.75 108.62,-68.22 36.34,-25.46 67.75,-58.39 93.35,-94.6 12.52,-18.38 23.73,-37.59 33.43,-57.59 9.45,-20.11 17.43,-40.92 23.53,-62.45 6.02,-21.6 10.41,-43.71 11.09,-67.53 0.14,-3.11 0.11,-5.66 0.11,-8.29 v -7.9 -15.81 -31.61 -126.47 -505.85 l -21.05,21.05 h 71.22 l -21.05,-21.05 v 523.69 130.92 32.73 c 0.03,5.53 -0.06,10.75 0.06,16.53 0.23,5.86 0.19,11.72 0.66,17.57 1.54,23.42 5.93,46.67 12.79,68.99 13.72,44.79 36.99,85.26 63.66,121.65 26.8,36.46 56.95,69.46 87.98,100.92 62.25,62.79 127.66,120.46 189.42,181.27 61.83,60.62 120.57,123.96 171.28,193.16 25.46,34.49 48.74,70.48 69.91,107.61 20.93,37.27 39.57,75.78 55.59,115.36 15.84,39.65 29.1,80.34 39.71,121.73 5.37,20.69 9.86,41.6 13.96,62.59 1.99,10.5 3.66,21.08 5.52,31.61 0.3,1.7 0.25,1.72 0.4,2.07 0.12,0.28 0.32,0.44 0.66,0.46 0.65,0.08 1.95,-0.43 4.13,-0.63 2.14,-0.21 5.07,0.1 7.85,1.31 2.8,1.18 5.38,3.14 7.53,5.41 z m 9.76,40.96 c 1.38,-3.12 3.2,-6.57 5.22,-10.79 2.01,-4.18 4.17,-9.28 5.55,-14.89 1.4,-5.6 1.93,-11.51 1.82,-16.83 -0.05,-2.68 -0.24,-5.22 -0.5,-7.64 -0.24,-2.35 -0.64,-5.04 -0.83,-6.02 -1.92,-10.95 -3.67,-21.94 -5.74,-32.87 -4.26,-21.84 -8.95,-43.61 -14.53,-65.17 -11.06,-43.15 -24.9,-85.62 -41.45,-127.02 -16.72,-41.32 -36.18,-81.53 -57.99,-120.36 -22.05,-38.69 -46.27,-76.11 -72.65,-111.83 -52.54,-71.7 -112.97,-136.76 -175.71,-198.28 -62.65,-61.66 -128.27,-119.56 -188.93,-180.78 -30.24,-30.64 -59.08,-62.32 -83.98,-96.23 -24.84,-33.86 -45.5,-70.27 -57.38,-109.1 -5.96,-19.39 -9.71,-39.3 -11.04,-59.43 -0.41,-5.03 -0.34,-10.09 -0.56,-15.13 -0.12,-5.13 -0.03,-10.82 -0.06,-16.2 v -32.73 -130.92 -523.69 c 0,-11.63 -9.43,-21.05 -21.06,-21.05 h -71.22 c -11.63,0 -21.05,9.42 -21.05,21.05 v 505.85 126.47 31.61 15.81 7.9 c 0,2.64 0.02,5.36 -0.12,7.52 -0.49,18.35 -4.17,37.95 -9.52,56.89 -5.39,19.02 -12.53,37.69 -21,55.74 -8.72,17.94 -18.79,35.2 -29.99,51.68 -23.1,32.49 -50.63,61.54 -83.44,84.5 -32.93,23.51 -69.36,44.51 -105.53,66.18 -36.28,21.61 -72.71,43.76 -108.21,67.72 -35.59,23.79 -69.88,50.07 -102.36,78.59 l -12.12,10.78 -6.05,5.41 -5.79,5.71 -23.13,22.89 c -14.5,16.19 -29.55,31.9 -42.58,49.42 -14,16.72 -25.65,35.24 -38.01,53.22 -11.16,18.25 -22.48,36.33 -32.95,54.93 -21.36,36.93 -41.17,74.73 -60.29,112.37 -19.23,37.51 -37.73,75.13 -59.85,108.24 -11.35,16.15 -23.71,30.96 -37.77,43.27 -14.4,11.84 -30.63,20.94 -48.19,28 l -0.03,0.01 -1.21,0.54 c -10.6,4.74 -15.36,17.17 -10.62,27.78 3.47,7.77 11.09,12.4 19.09,12.45 114.88,0.6 229.9,-15.99 339.79,-49.89 109.83,-33.83 214.76,-85.08 307.17,-154.59 23.24,-17.16 45.17,-36.11 66.6,-55.59 20.89,-20.09 41.41,-40.68 59.89,-63.21 37.38,-44.49 70.47,-93.68 93.24,-148.57 10.74,-27.67 18.8,-56.55 22.83,-86.18 3.73,-29.53 3.06,-60.4 0.81,-87.81 -3.48,-56.36 -8.15,-112.68 -14.73,-169.14 l 0.01,-0.01 -1.38,0.04 c -0.69,27.36 0.16,54.6 1.49,81.77 0.57,13.6 1.44,27.17 2.37,40.72 0.83,13.57 1.91,27.1 3.09,40.62 1.32,27.45 7.4,55.04 12.93,82.45 3.53,13.44 7.08,26.91 10.86,40.34 4.5,13.19 9.28,26.32 14.21,39.38 43.29,103.11 111.75,195.38 195.78,267.66 41.85,36.37 86.8,68.51 132.73,98.27 45.93,29.83 92.98,57.14 138.98,85.04 23.09,13.88 45.65,28.15 67.82,42.82 21.89,14.92 43.34,30.28 63.15,47.08 5.12,4.05 9.61,8.63 14.46,12.91 l 7.14,6.52 c 2.35,2.2 4.45,4.59 6.69,6.87 4.34,4.66 8.98,9.11 13.11,13.92 l 12,14.65 c 2.12,2.37 3.76,5.02 5.53,7.6 l 5.28,7.75 c 1.72,2.59 3.61,5.11 5.21,7.77 l 4.44,8.17 4.46,8.16 1.12,2.03 0.56,1.02 0.29,0.51 0.45,1.01 c 1.28,2.79 2.78,5.73 4.61,8.69 3.58,5.95 8.88,11.88 14.37,16.09 5.5,4.29 10.55,7.06 14.4,9.56"
           style="fill:#000000;fill-opacity:1;fill-rule:nonzero;stroke:none;stroke-width:0.1"
           id="path118" /><path
           d="m 1417.0959,3028.0987 c 8.45,-4.52 16.97,-8.98 25.38,-13.65 8.41,-4.68 17.07,-9.04 25.03,-14.45 8.1,-5.19 16.28,-10.31 24.32,-15.65 4.01,-2.69 8.13,-5.23 12.05,-8.04 l 11.62,-8.59 c 15.44,-11.54 31.31,-22.68 45.96,-35.23 14.78,-12.4 29.85,-24.56 43.87,-37.82 57.2,-51.96 109.43,-109.13 158.39,-168.92 11.96,-15.17 24.09,-30.24 35.93,-45.53 l 34.37,-46.77 32.44,-48.2 c 10.57,-16.24 20.47,-32.94 30.74,-49.4 5.25,-8.16 9.75,-16.79 14.56,-25.22 l 14.26,-25.44 c 4.93,-8.38 9.09,-17.21 13.41,-25.94 l 12.93,-26.23 c 4.5,-8.64 8.09,-17.77 12.01,-26.73 l 11.57,-26.97 c 2.03,-4.45 3.69,-9.08 5.32,-13.72 l 4.93,-13.91 9.79,-27.83 c 3.86,-10.97 -1.9,-22.99 -12.87,-26.85 -10.97,-3.86 -22.99,1.9 -26.85,12.87 -0.06,0.16 -0.11,0.31 -0.16,0.47 l -0.29,0.89 c -22.71,70.86 -55.49,139.14 -92.36,205.02 -9.62,16.27 -18.86,32.77 -28.79,48.88 l -30.57,47.88 -32.01,47.02 -33.55,45.98 c -45.7,60.65 -95.49,118.25 -148.67,172.54 -12.94,13.98 -26.91,26.83 -40.65,39.99 -13.39,13.58 -27.92,25.8 -42.16,38.47 l -10.72,9.46 c -3.61,3.1 -7.43,5.92 -11.15,8.9 -7.5,5.84 -14.87,11.9 -22.31,17.9 -7.27,6.25 -15.24,11.45 -23.02,17 -7.83,5.46 -15.57,11.13 -23.37,16.74 l -0.04,0.03 c -0.28,0.2 -0.34,0.59 -0.14,0.87 0.18,0.25 0.53,0.33 0.8,0.18"
           style="fill:#000000;fill-opacity:1;fill-rule:nonzero;stroke:none;stroke-width:0.1"
           id="path120" /><path
           d="m 2693.3859,3075.7787 c -39.62,-75.11 -91.52,-142.97 -144.51,-208.87 -53.36,-65.79 -108.74,-129.71 -162.19,-194.88 -53.38,-65.17 -105.31,-131.48 -150.01,-201.82 -22.24,-35.2 -42.75,-71.31 -59.82,-108.69 -17.03,-37.36 -30.58,-76.03 -38.35,-115.47 l -0.03,-0.15 c -2.25,-11.41 -13.33,-18.84 -24.74,-16.59 -11.41,2.25 -18.83,13.32 -16.58,24.73 0.03,0.17 0.08,0.42 0.12,0.59 9.81,43.28 25.66,84.41 44.76,123.37 19.13,38.98 41.52,75.89 65.75,111.24 48.51,70.71 103.37,135.84 159.29,199.46 55.99,63.6 113.5,125.47 168.87,189.07 27.61,31.84 55.06,63.82 81.02,96.97 13.14,16.45 25.86,33.23 38.16,50.33 6.26,8.47 12.1,17.22 18.18,25.83 5.94,8.71 11.53,17.64 17.33,26.46 l 0.02,0.03 c 0.48,0.74 1.46,0.94 2.2,0.46 0.69,-0.45 0.91,-1.36 0.53,-2.07"
           style="fill:#000000;fill-opacity:1;fill-rule:nonzero;stroke:none;stroke-width:0.1"
           id="path122" /></g><path
         style="fill:#552200;stroke-width:0.75"
         id="path267"
         d="m 1370.0293,1667.6764 c 28.037,22.9317 59.4822,41.0174 88.7209,62.2471 3.1694,2.498 21.2079,16.8479 24.8806,19.2326 3.7675,2.4465 15.7409,8.661 11.8663,6.3879 -31.0991,-18.2451 -123.8935,-73.7782 -93.5467,-54.3075 131.7088,84.5054 83.9555,33.5398 124.4481,78.5189 2.9716,3.1639 5.9588,6.3132 8.9148,9.4916 5.522,5.9372 10.3238,12.6119 16.4705,17.8994 3.0258,2.6029 13.3671,8.7184 9.9238,6.7002 -99.794,-58.4936 -127.3388,-66.2715 -82.4739,-52.1315 29.2001,2.8917 54.4941,-14.7207 75.8502,-32.5756 22.5096,-19.8246 47.0977,-37.8097 66.4275,-60.9186 1.7298,-2.7957 5.1236,-6.4518 4.3419,-10.3689 -0.4536,-2.2731 -7.9092,-4.8391 -5.9417,-3.6133 95.6846,59.6142 135.4895,72.3606 91.2898,57.537 -22.4169,-1.9234 -44.1578,6.5946 -65.3397,12.9082 -26.1714,7.4759 -51.7982,16.434 -75.2912,30.2834 -27.6828,18.6558 -51.5061,42.4021 -81.3112,57.8828 -48.6297,17.6361 -58.1108,-17.5262 -121.2998,-64.0838 -2.5718,-1.8948 1.5274,-6.205 2.1734,-9.3334 1.7916,-8.6766 2.1136,-5.5783 -0.064,-11.9026 -44.169,-1.0547 -2.6787,-0.8766 95.6886,59.97 1.5243,0.9429 -3.4731,-1.1391 -5.2647,-1.0917 -10.0716,0.2667 -20.5343,4.362 -30.114,7.0731 -51.6273,11.9736 -52.0167,-14.5279 -125.4926,-61.7982 -3.2689,-2.103 -1.8031,-20.2233 -1.8812,-23.512 -0.5978,-18.2654 -11.769,-30.5753 -23.532,-43.2611 0,0 112.2006,47.5692 112.2006,47.5692 v 0 c 11.7622,15.1674 20.9414,30.9213 21.229,50.69 0.5285,4.1216 0.6047,9.062 2.9641,12.7864 0.7454,1.1766 4.3882,3.3966 3.1682,2.7246 -34.2591,-18.8714 -68.0955,-38.5037 -102.3606,-57.364 -1.6834,-0.9266 2.6783,3.1261 4.5568,3.5305 2.7295,0.5876 5.5614,-0.5025 8.3421,-0.7537 10.2077,-2.4212 20.2829,-5.4931 30.2866,-8.6396 2.6977,-0.8485 5.4169,-4.248 7.944,-2.9785 111.4945,56.0093 101.968,21.7354 112.7524,69.986 -0.2524,4.6559 -1.251,9.2706 -1.2391,13.9334 0,1.2954 2.0483,4.3937 0.9082,3.7787 -34.8027,-18.772 -68.3771,-39.7504 -103.0028,-58.8467 -1.5005,-0.8276 1.754,3.29 3.3582,3.8921 2.1993,0.8254 4.6981,0.01 7.0472,0.013 31.6325,-11.1534 53.9809,-37.1613 80.8544,-56.1054 23.5142,-15.2579 49.6402,-25.5647 76.6136,-33.1072 22.0213,-7.1366 44.5391,-15.0289 67.5638,-17.4881 52.7543,-3.6299 150.5314,40.3224 113.6028,92.843 -20.4972,23.0097 -45.5145,41.3491 -68.4529,61.7968 -23.1487,20.3492 -49.6514,39.1901 -81.2081,42.1899 -67.022,-6.173 -119.0796,-55.5064 -162.7432,-102.019 -3.384,-2.8427 -14.0477,-10.615 -10.1521,-8.528 31.5065,16.8793 123.8172,71.4702 93.2032,53.0217 -51.6558,-31.1287 -104.5085,-54.6158 -150.6134,-92.2987 -30.1464,-20.9476 -60.9717,-40.9019 -90.5431,-62.6862 0,0 114.2764,44.8259 114.2764,44.8259 z" /><path
         style="fill:#552200;stroke-width:0.75"
         id="path269"
         d="m 1499.9142,1692.4012 c -13.8996,17.5222 -23.8722,37.448 -39.1439,53.9133 0,0 -104.1846,-64.1071 -104.1846,-64.1071 v 0 c 16.9775,-14.3212 25.274,-34.8392 37.4842,-52.9793 0,0 105.8443,63.1731 105.8443,63.1731 z" /></g></g></svg>
